inDegrees=yes
name=ik_S51_A06_T03
DataType=double
version=3
OpenSimVersion=4.3-2021-08-27-4bc7ad9
endheader
time	pelvis_tilt	pelvis_list	pelvis_rotation	pelvis_tx	pelvis_ty	pelvis_tz	hip_flexion_r	hip_adduction_r	hip_rotation_r	knee_angle_r	knee_angle_r_beta	ankle_angle_r	subtalar_angle_r	mtp_angle_r	hip_flexion_l	hip_adduction_l	hip_rotation_l	knee_angle_l	knee_angle_l_beta	ankle_angle_l	subtalar_angle_l	mtp_angle_l	lumbar_extension	lumbar_bending	lumbar_rotation	arm_flex_r	arm_add_r	arm_rot_r	elbow_flex_r	pro_sup_r	wrist_flex_r	wrist_dev_r	arm_flex_l	arm_add_l	arm_rot_l	elbow_flex_l	pro_sup_l	wrist_flex_l	wrist_dev_l
0	0	0	0	0	0.9399999999999999	0	0	0	0	0	0	0	0	0	0	0	0	0	0	0	0	0	0	0	0	0	0	0	0	89.99999999963507	0	0	0	0	0	0	89.99999999869995	0	0
0.02	-3.803905767472387	0.0731809773579532	22.03788215050358	0	0.9399999999999999	0	3.561526368934186	-1.656732708144447	-1.197225637022672	5.43546585064637	0.09486677547349351	0	0	0	3.561526368934186	-1.656732708144447	-1.197225637022672	5.43546585064637	0.09486677547349351	0	0	0	-1.046288466884821	-0.8305747662131925	5.465484039934046	23.96259233719897	-21.70568734366622	-5.860208051964009	55.94587180785675	127.5090367457092	0	0	34.69719731697419	-1.87292773067539	-4.114353583114124	26.64429527208297	123.4362689830716	0	0
0.04	-3.790682489801542	0.06040296329140162	22.0497057615579	0	0.9399999999999999	0	3.589372118806833	-1.670993101484114	-1.206760087307961	5.472254853938656	0.09550886470947094	0	0	0	3.589372118806833	-1.670993101484114	-1.206760087307961	5.472254853938656	0.09550886470947094	0	0	0	-1.039498677658394	-0.8457689962327974	5.41580734387952	23.95862982685874	-21.63725933131886	-5.888641938326335	55.89483593402435	127.5065488669876	0	0	34.62852823168871	-1.7898359299398	-4.479387719458649	26.73146547199789	123.6347564404194	0	0
0.06	-3.780251566860766	0.05457447851139823	22.02949660792914	0	0.9399999999999999	0	4.035901783668118	-1.870685312357534	-1.364326361947473	5.907138796027097	0.1030990213629666	0	0	0	4.035901783668118	-1.870685312357534	-1.364326361947473	5.907138796027097	0.1030990213629666	0	0	0	-1.053067157463881	-0.8365652420883144	5.373198802990971	23.97895337784847	-21.62300510939573	-5.818281105500503	55.94515087842748	127.4236657546823	0	0	34.63972161691355	-1.834963014841616	-4.538384745730247	26.82178215230268	123.3243476273968	0	0
0.08	-3.787042588835292	0.05579708422373322	22.04428097475454	0	0.9399999999999999	0	4.053298581879263	-1.879513841169085	-1.370285060557168	5.929826206396091	0.1034949913726566	0	0	0	4.053298581879263	-1.879513841169085	-1.370285060557168	5.929826206396091	0.1034949913726566	0	0	0	-1.05934395866357	-0.8317805542055946	5.338707265880932	24.01218197925601	-21.6233237896235	-5.843236023558414	55.90541715052679	127.482020535386	0	0	34.54220017235979	-1.794657303490045	-4.776242298690502	26.98444886936106	123.3060329520969	0	0
0.1	-3.786262808651337	0.04409513359383301	22.01060787140425	0	0.9399999999999999	0	4.332523438299662	-2.016371258907296	-1.467958339526571	6.253994684671421	0.1091527986497408	0	0	0	4.332523438299662	-2.016371258907296	-1.467958339526571	6.253994684671421	0.1091527986497408	0	0	0	-1.072549016885464	-0.8347640495713013	5.33805960394677	24.01274196199343	-21.62156261158928	-5.873230210778058	55.95602105189788	127.4396496938054	0	0	34.56693826048833	-1.843099613862766	-4.804337867949889	27.15703350461183	123.1145407027757	0	0
0.12	-3.778382466671676	0.04020934011222144	22.11932562857648	0	0.9399999999999999	0	4.350607943459591	-2.02551535256242	-1.474160166087675	6.277283400017243	0.1095592634110852	0	0	0	4.350607943459591	-2.02551535256242	-1.474160166087675	6.277283400017243	0.1095592634110852	0	0	0	-1.066930806983997	-0.8385513132673273	5.217164469428898	24.00024025105536	-21.58969161047817	-5.863826902968858	55.93592001155631	127.4895486198292	0	0	34.38165148325423	-1.755860192640256	-5.982467907987564	27.32131202864044	123.9871038000512	0	0
0.14	-3.784869505648121	0.02044058695117861	22.16067443061235	0	0.9399999999999999	0	4.35603556822696	-2.028244268323204	-1.476018745209634	6.284277714629659	0.1096813372299922	0	0	0	4.35603556822696	-2.028244268323204	-1.476018745209634	6.284277714629659	0.1096813372299922	0	0	0	-1.080549601295216	-0.8541997234470409	5.213550745934691	23.98534574281741	-21.56485190147722	-5.906000853287435	55.93187466430171	127.4697881713277	0	0	34.40183606651824	-1.738097089519957	-6.153843970422724	27.35376949721128	124.0152237378062	0	0
0.16	-3.779939549847058	0.01508102077298698	22.17768330853142	0	0.9399999999999999	0	4.610677235055348	-2.163707235869655	-1.564682529397579	6.619877817703981	0.1155386639986714	0	0	0	4.610677235055348	-2.163707235869655	-1.564682529397579	6.619877817703981	0.1155386639986714	0	0	0	-1.084757134421321	-0.8542853016335795	5.191258709717063	23.99584199583296	-21.57301079555037	-5.884988291244071	55.97151368917488	127.4246490865447	0	0	34.38586811969269	-1.735038078774755	-6.170079926465797	27.45843557144368	123.9889603085512	0	0
0.18	-3.78477762037088	0.009408932830099971	22.20779708267473	0	0.9399999999999999	0	4.631863762300715	-2.174352497895569	-1.571953959444551	6.646773036590858	0.116008074121292	0	0	0	4.631863762300715	-2.174352497895569	-1.571953959444551	6.646773036590858	0.116008074121292	0	0	0	-1.092002870542191	-0.8566672677077705	5.165820855046477	23.9998125057534	-21.56956748411659	-5.838560474090768	55.96446730578202	127.442638454429	0	0	34.45136824422402	-1.761751551657098	-6.445714967178263	27.38678724456149	124.2250692300597	0	0
0.2	-3.777187117775366	0.001051219947365865	22.21585714777012	0	0.9399999999999999	0	4.85555957081141	-2.287832530270353	-1.650707269830799	6.914550072201846	0.1206816650539339	0	0	0	4.85555957081141	-2.287832530270353	-1.650707269830799	6.914550072201846	0.1206816650539339	0	0	0	-1.095479600786758	-0.8609009159685865	5.181413002339253	23.99508896259466	-21.58618715370682	-5.844808718183157	55.99075138069217	127.4115667608558	0	0	34.47566197375731	-1.779973718095601	-6.335548657291068	27.38473066774331	124.2429276120119	0	0
0.22	-3.775625325374318	-0.000532035059382404	22.19452814681301	0	0.9399999999999999	0	4.87368657788283	-2.296863152457566	-1.656925069170757	6.93735058394617	0.1210796090550119	0	0	0	4.87368657788283	-2.296863152457566	-1.656925069170757	6.93735058394617	0.1210796090550119	0	0	0	-1.09517746525039	-0.8628606782599391	5.202789120161844	23.99467942822033	-21.59095171785253	-5.850805035705637	55.94899321855367	127.4581435528647	0	0	34.48338419120827	-1.838115639056711	-6.128599893027265	27.39537315348217	124.0304573416188	0	0
0.24	-3.775801340776944	0.01747248395201493	22.16002881342978	0	0.9399999999999999	0	4.87806990848626	-2.299018916360988	-1.658422932544656	6.942882456957228	0.1211761584528571	0	0	0	4.87806990848626	-2.299018916360988	-1.658422932544656	6.942882456957228	0.1211761584528571	0	0	0	-1.088698942594692	-0.8462855082489957	5.218793121916503	24.02194352089655	-21.61069458547939	-5.783199876723629	55.95106557047324	127.4850807758033	0	0	34.44953252293637	-1.875815160263404	-5.924536529318157	27.39465157508122	124.0136395413917	0	0
0.26	-3.776475948908916	0.02063764812106647	22.13303257668573	0	0.9399999999999999	0	4.882431676180667	-2.301161378512925	-1.659912917371918	6.94838802128177	0.1212722486775007	0	0	0	4.882431676180667	-2.301161378512925	-1.659912917371918	6.94838802128177	0.1212722486775007	0	0	0	-1.088282934758561	-0.8433328190755699	5.23841525774152	24.0219064794327	-21.63078650372893	-5.742794928096234	55.95203815571176	127.4964799879601	0	-1.077613842297402e-35	34.45062030373825	-1.924846585445202	-5.731585894765062	27.39392567863709	124.0429332314022	0	-1.077613842297402e-35
0.28	-3.547144311548011	-0.0155425079429712	22.19290640929639	0	0.9399999999999999	0	40.75063193591609	-12.69514665891797	-11.20234156348373	53.9494089267662	0.9415948152768906	0	0	0	40.75063193591609	-12.69514665891797	-11.20234156348373	53.9494089267662	0.9415948152768906	0	0	0	-1.283369687732714	-0.73735398103377	5.202703278537586	24.0175418589977	-21.62964568692316	-5.754355978524007	55.93074694988145	127.4983110422802	0	0	34.47607586874335	-1.993003442201538	-5.589247179018736	27.37584753186951	124.0083065959293	0	0
0.3	-3.546652590685534	-0.005933780059389348	22.17872293111421	0	0.9399999999999999	0	40.75544432584508	-12.68481216060805	-11.19936470251462	53.95021044034873	0.9416088043279052	0	0	0	40.75544432584508	-12.68481216060805	-11.19936470251462	53.95021044034873	0.9416088043279052	0	0	0	-1.28085650174357	-0.727095268038395	5.202230881631433	24.04780672862331	-21.65401121655247	-5.695281442924832	55.96299246392361	127.4737227064976	0	1.240729218817028e-35	34.45195100902545	-2.049059632902359	-5.508163311307326	27.40228546469712	124.0204613102698	0	1.240729218817028e-35
0.32	-3.55711989903143	-0.006749033425957116	22.16267218195894	0	0.9399999999999999	0	40.75615378494442	-12.68325608535612	-11.19891924435892	53.9503285618104	0.9416108659363286	0	0	0	40.75615378494442	-12.68325608535612	-11.19891924435892	53.9503285618104	0.9416108659363286	0	0	0	-1.291102102963241	-0.723703399933212	5.203978450118845	24.08390323659959	-21.64642106955592	-5.696444101938536	55.97263539036394	127.445617749364	0	0	34.50229190948808	-2.123624634895755	-5.440038566899768	27.41268383918787	124.0735107777413	0	0
